<svg width="61" height="84" viewBox="0 0 61 84" fill="none" xmlns="http://www.w3.org/2000/svg">
<path d="M59.3009 83.6587L58.288 82.7656C57.5038 83.0597 56.5671 83.2231 55.5106 83.2231C52.1887 83.2231 50.0322 81.6002 50.0322 79.0952C50.0322 76.6119 52.1887 75 55.5106 75C58.8543 75 61 76.6119 61 79.0952C61 80.1952 60.5861 81.121 59.8455 81.8181L60.5425 82.428L59.3009 83.6587ZM52.7006 79.0952C52.7006 80.2824 53.8007 81.0666 55.5106 81.0666C55.7938 81.0666 56.0552 81.0448 56.3057 81.0012L55.1403 79.9774L56.3711 78.7467L57.9721 80.1626C58.2117 79.8576 58.3424 79.4982 58.3424 79.0952C58.3424 77.9189 57.2424 77.1456 55.5106 77.1456C53.7898 77.1456 52.7006 77.9189 52.7006 79.0952Z" fill="#9D2B21"/>
<path d="M42.913 83.2231C39.5911 83.2231 37.4346 81.6002 37.4346 79.0952C37.4346 76.6119 39.5911 75 42.913 75C46.2567 75 48.4023 76.6119 48.4023 79.0952C48.4023 81.6002 46.2567 83.2231 42.913 83.2231ZM40.103 79.0952C40.103 80.2824 41.203 81.0666 42.913 81.0666C44.6447 81.0666 45.7448 80.2824 45.7448 79.0952C45.7448 77.9189 44.6447 77.1456 42.913 77.1456C41.1921 77.1456 40.103 77.9189 40.103 79.0952Z" fill="#9D2B21"/>
<path d="M30.4345 83.0051V80.3912L26.1978 75.1851H29.3781L31.7088 78.2456L34.0505 75.1851H37.2308L32.994 80.3912V83.0051H30.4345Z" fill="#9D2B21"/>
<path d="M20.5033 83.2231C17.1814 83.2231 15.0249 81.6002 15.0249 79.0952C15.0249 76.6119 17.1814 75 20.5033 75C23.847 75 25.9926 76.6119 25.9926 79.0952C25.9926 81.6002 23.847 83.2231 20.5033 83.2231ZM17.6933 79.0952C17.6933 80.2824 18.7934 81.0666 20.5033 81.0666C22.2351 81.0666 23.3351 80.2824 23.3351 79.0952C23.3351 77.9189 22.2351 77.1456 20.5033 77.1456C18.7825 77.1456 17.6933 77.9189 17.6933 79.0952Z" fill="#9D2B21"/>
<path d="M10.7368 83.0051V75.1851H13.2963V83.0051H10.7368Z" fill="#9D2B21"/>
<path d="M0 83.0051V75.1851H6.04477C8.08148 75.1851 8.72408 75.9692 8.72408 77.102C8.72408 78.0386 8.17951 78.6268 7.37354 78.9099C8.35377 79.1605 9.17063 79.705 9.17063 80.8486C9.17063 82.1229 8.40823 83.0051 6.49133 83.0051H0ZM2.5595 81.1536H5.67446C6.1428 81.1536 6.51311 81.1209 6.51311 80.511C6.51311 79.9011 6.12102 79.8684 5.67446 79.8684H2.5595V81.1536ZM2.5595 78.3109H5.2388C5.77249 78.3109 6.16458 78.2673 6.16458 77.6574C6.16458 77.0693 5.79427 77.0366 5.2388 77.0366H2.5595V78.3109Z" fill="#9D2B21"/>
<path d="M18.8906 20.014L9.83496 15.5105V34.8505C12.6622 38.4942 15.6833 41.9833 18.8852 45.3026L18.8906 20.014Z" fill="#9D2B21"/>
<path d="M9.83496 45.6218V72.0769H18.8906V54.0658C15.6989 51.4427 12.6745 48.6225 9.83496 45.6218Z" fill="#9D2B21"/>
<path d="M32.1632 0L20.2739 5.81065V46.7017C23.993 50.4396 27.9655 53.9166 32.1632 57.1078V0Z" fill="#9D2B21"/>
<path d="M20.2739 72.077H32.1632V63.0268C27.9909 60.7308 24.0145 58.0958 20.2739 55.1484V72.077Z" fill="#9D2B21"/>
<path d="M44.6965 5.84574L33.0049 0.0756836V57.741C36.7255 60.5133 40.6319 63.0271 44.6965 65.2648V5.84574Z" fill="#9D2B21"/>
<path d="M33.0049 72.077H44.6965V68.6452C40.6763 67.2183 36.7682 65.4931 33.0049 63.4841V72.077Z" fill="#9D2B21"/>
<path d="M52.7236 26.6255L45.5381 30.3387V65.7195C47.8439 66.9563 50.2391 68.1201 52.7236 69.1891V26.6255Z" fill="#9D2B21"/>
<path d="M45.5381 72.0769H52.7236V71.0675C50.2256 70.4396 47.8304 69.7143 45.5381 68.9348V72.0769Z" fill="#9D2B21"/>
<path d="M60.3556 72.077V30.3821L53.3677 26.4795V69.4626C55.6248 70.4152 57.9523 71.2921 60.3556 72.077Z" fill="#9D2B21"/>
<path d="M53.3677 72.0769H57.1972C55.8946 71.817 54.6207 71.5338 53.3758 71.2271L53.3677 72.0769Z" fill="#9D2B21"/>
<path d="M0.00292969 20.0112C0.00292969 20.0112 3.01516 25.8679 9.05314 33.8139V15.5105" fill="#9D2B21"/>
<path d="M0 72.0771H9.05292V44.7803C4.75786 40.1794 1.84847 36.2849 0.00270647 34.3579" fill="#9D2B21"/>
</svg>
