<svg width="61" height="73" viewBox="0 0 61 73" fill="none" xmlns="http://www.w3.org/2000/svg">
<path d="M18.8906 20.014L9.83496 15.5105V34.8505C12.6622 38.4942 15.6833 41.9833 18.8852 45.3026L18.8906 20.014Z" fill="#9D2B21"/>
<path d="M9.83496 45.6218V72.0769H18.8906V54.0658C15.6989 51.4427 12.6745 48.6225 9.83496 45.6218Z" fill="#9D2B21"/>
<path d="M32.1632 0L20.2739 5.81065V46.7017C23.993 50.4396 27.9655 53.9166 32.1632 57.1078V0Z" fill="#9D2B21"/>
<path d="M20.2739 72.077H32.1632V63.0268C27.9909 60.7308 24.0145 58.0958 20.2739 55.1484V72.077Z" fill="#9D2B21"/>
<path d="M44.6965 5.84574L33.0049 0.0756836V57.741C36.7255 60.5133 40.6319 63.0271 44.6965 65.2648V5.84574Z" fill="#9D2B21"/>
<path d="M33.0049 72.077H44.6965V68.6452C40.6763 67.2183 36.7682 65.4931 33.0049 63.4841V72.077Z" fill="#9D2B21"/>
<path d="M52.7236 26.6255L45.5381 30.3387V65.7195C47.8439 66.9563 50.2391 68.1201 52.7236 69.1891V26.6255Z" fill="#9D2B21"/>
<path d="M45.5381 72.0769H52.7236V71.0675C50.2256 70.4396 47.8304 69.7143 45.5381 68.9348V72.0769Z" fill="#9D2B21"/>
<path d="M60.3556 72.077V30.3821L53.3677 26.4795V69.4626C55.6248 70.4152 57.9523 71.2921 60.3556 72.077Z" fill="#9D2B21"/>
<path d="M53.3677 72.0769H57.1972C55.8946 71.817 54.6207 71.5338 53.3758 71.2271L53.3677 72.0769Z" fill="#9D2B21"/>
<path d="M0.00292969 20.0112C0.00292969 20.0112 3.01516 25.8679 9.05314 33.8139V15.5105" fill="#9D2B21"/>
<path d="M0 72.0771H9.05292V44.7803C4.75786 40.1794 1.84847 36.2849 0.00270647 34.3579" fill="#9D2B21"/>
</svg>
